HIERARCHY
ROOT hips
{
  OFFSET 0 10.6860622 2.3727825e-15
  CHANNELS 6 Xposition Yposition Zposition Yrotation Xrotation Zrotation
  JOINT leftUpperLeg
  {
    OFFSET 0.6642549969 -0.9402397400000004 0
    CHANNELS 3 Yrotation Xrotation Zrotation
    JOINT leftLowerLeg
    {
      OFFSET 0 -3.997221335632195 0
      CHANNELS 3 Yrotation Xrotation Zrotation
      JOINT leftFoot
      {
        OFFSET -0.13777839790000004 -4.6145792000000005 -0.22186036399999998
        CHANNELS 3 Yrotation Xrotation Zrotation
        JOINT leftToes
        {
          OFFSET -0.03777410834999995 -0.9130806927000008 0.85230013
          CHANNELS 3 Yrotation Xrotation Zrotation
          End Site
          {
            OFFSET -0.03777410834999995 -0.9130806927000008 0.85230013
          }
        }
      }
    }
  }
  JOINT rightUpperLeg
  {
    OFFSET -0.6642778626 -0.9402397400000004 0
    CHANNELS 3 Yrotation Xrotation Zrotation
    JOINT rightLowerLeg
    {
      OFFSET 0 -3.997221452859387 0
      CHANNELS 3 Yrotation Xrotation Zrotation
      JOINT rightFoot
      {
        OFFSET 0.1377926176 -4.6145792000000005 -0.22185782299999995
        CHANNELS 3 Yrotation Xrotation Zrotation
        JOINT rightToes
        {
          OFFSET 0.037780746850000047 -0.9130806927000008 0.85230167
          CHANNELS 3 Yrotation Xrotation Zrotation
          End Site
          {
            OFFSET 0.037780746850000047 -0.9130806927000008 0.85230167
          }
        }
      }
    }
  }
  JOINT spine
  {
    OFFSET 0 0.13988381660000015 0
    CHANNELS 3 Yrotation Xrotation Zrotation
    JOINT chest
    {
      OFFSET 0 0.6191039003973773 0
      CHANNELS 3 Yrotation Xrotation Zrotation
      JOINT upperChest
      {
        OFFSET 0 0.9855186130586943 0
        CHANNELS 3 Yrotation Xrotation Zrotation
        JOINT leftShoulder
        {
          OFFSET 0.1807663869 1.5087829790000005 0
          CHANNELS 3 Yrotation Xrotation Zrotation
          JOINT leftUpperArm
          {
            OFFSET 0.5985063006419806 0 0
            CHANNELS 3 Yrotation Xrotation Zrotation
            JOINT leftLowerArm
            {
              OFFSET 2.2993332369501065 0 0
              CHANNELS 3 Yrotation Xrotation Zrotation
              JOINT leftHand
              {
                OFFSET 2.395047042602395 0 0
                CHANNELS 3 Yrotation Xrotation Zrotation
                JOINT leftIndexProximal
                {
                  OFFSET 0.5766295810000004 0.04556643899499946 0.17265095988184
                  CHANNELS 3 Yrotation Xrotation Zrotation
                  JOINT leftIndexIntermediate
                  {
                    OFFSET 0.2957229000000008 -0.019352197700001517 -0.007932640616999987
                    CHANNELS 3 Yrotation Xrotation Zrotation
                    JOINT leftIndexDistal
                    {
                      OFFSET 0.19008243099999922 -0.012484908149998475 -0.002786250786000012
                      CHANNELS 3 Yrotation Xrotation Zrotation
                      End Site
                      {
                        OFFSET 0.19008243099999922 -0.012484908149998475 -0.002786250786000012
                      }
                    }
                  }
                }
                JOINT leftMiddleProximal
                {
                  OFFSET 0.5834975091000001 0.0524350405149987 0.02204081888183999
                  CHANNELS 3 Yrotation Xrotation Zrotation
                  JOINT leftMiddleIntermediate
                  {
                    OFFSET 0.33880573540000003 -0.019871473270000717 -0.00000971183179999946
                    CHANNELS 3 Yrotation Xrotation Zrotation
                    JOINT leftMiddleDistal
                    {
                      OFFSET 0.20676022730000088 -0.012221336379999448 0.0001471936708000235
                      CHANNELS 3 Yrotation Xrotation Zrotation
                      End Site
                      {
                        OFFSET 0.20676022730000088 -0.012221336379999448 0.0001471936708000235
                      }
                    }
                  }
                }
                JOINT leftLittleProximal
                {
                  OFFSET 0.5344154683999995 -0.012880921405001189 -0.24414037221816004
                  CHANNELS 3 Yrotation Xrotation Zrotation
                  JOINT leftLittleIntermediate
                  {
                    OFFSET 0.21758961730000093 -0.011650919939999227 0.011893592810000034
                    CHANNELS 3 Yrotation Xrotation Zrotation
                    JOINT leftLittleDistal
                    {
                      OFFSET 0.1475273964999999 -0.008152365682999818 0.006001092492999946
                      CHANNELS 3 Yrotation Xrotation Zrotation
                      End Site
                      {
                        OFFSET 0.1475273964999999 -0.008152365682999818 0.006001092492999946
                      }
                    }
                  }
                }
                JOINT leftRingProximal
                {
                  OFFSET 0.5799399463000003 0.026911854694997794 -0.12150566991816003
                  CHANNELS 3 Yrotation Xrotation Zrotation
                  JOINT leftRingIntermediate
                  {
                    OFFSET 0.26167887460000006 -0.013480186499999602 0.010996293000000053
                    CHANNELS 3 Yrotation Xrotation Zrotation
                    JOINT leftRingDistal
                    {
                      OFFSET 0.17667108799999987 -0.008990287899999228 0.0055541023999999065
                      CHANNELS 3 Yrotation Xrotation Zrotation
                      End Site
                      {
                        OFFSET 0.17667108799999987 -0.008990287899999228 0.0055541023999999065
                      }
                    }
                  }
                }
                JOINT leftThumbProximal
                {
                  OFFSET 0.11018806699999972 -0.09448718900500053 0.17047963138184
                  CHANNELS 3 Yrotation Xrotation Zrotation
                  JOINT leftThumbIntermediate
                  {
                    OFFSET 0.31062601459999983 -0.08126270900000132 0.15443142000000007
                    CHANNELS 3 Yrotation Xrotation Zrotation
                    JOINT leftThumbDistal
                    {
                      OFFSET 0.21627175790000086 -0.08833193599999878 0.018771167799999988
                      CHANNELS 3 Yrotation Xrotation Zrotation
                      End Site
                      {
                        OFFSET 0.21627175790000086 -0.08833193599999878 0.018771167799999988
                      }
                    }
                  }
                }
              }
            }
          }
        }
        JOINT neck
        {
          OFFSET 0 1.5463305265074576 0
          CHANNELS 3 Yrotation Xrotation Zrotation
          JOINT head
          {
            OFFSET 0 0.8456443600000344 0
            CHANNELS 3 Yrotation Xrotation Zrotation
            JOINT leftEye
            {
              OFFSET 0.30408573140000006 0.5104519199999995 0.1276382305
              CHANNELS 3 Yrotation Xrotation Zrotation
              End Site
              {
                OFFSET 0.30408573140000006 0.5104519199999995 0.1276382305
              }
            }
            JOINT rightEye
            {
              OFFSET -0.30409491089999996 0.5104519199999995 0.1276379445
              CHANNELS 3 Yrotation Xrotation Zrotation
              End Site
              {
                OFFSET -0.30409491089999996 0.5104519199999995 0.1276379445
              }
            }
            JOINT jaw
            {
              OFFSET -3.155239131000001e-7 -0.11984121820000082 0.60178107
              CHANNELS 3 Yrotation Xrotation Zrotation
              End Site
              {
                OFFSET -3.155239131000001e-7 -0.11984121820000082 0.60178107
              }
            }
          }
        }
        JOINT rightShoulder
        {
          OFFSET -0.1807303465 1.5087829790000005 0
          CHANNELS 3 Yrotation Xrotation Zrotation
          JOINT rightUpperArm
          {
            OFFSET -0.5985063796536958 0 0
            CHANNELS 3 Yrotation Xrotation Zrotation
            JOINT rightLowerArm
            {
              OFFSET -2.2993322059002854 0 0
              CHANNELS 3 Yrotation Xrotation Zrotation
              JOINT rightHand
              {
                OFFSET -2.395045314457259 0 0
                CHANNELS 3 Yrotation Xrotation Zrotation
                JOINT rightIndexProximal
                {
                  OFFSET -0.5764487688300002 0.0441371204405987 0.17361932004999997
                  CHANNELS 3 Yrotation Xrotation Zrotation
                  JOINT rightIndexIntermediate
                  {
                    OFFSET -0.29573011380000047 -0.01934826376999843 -0.007698921482999974
                    CHANNELS 3 Yrotation Xrotation Zrotation
                    JOINT rightIndexDistal
                    {
                      OFFSET -0.19008373999999884 -0.012503266380000655 -0.0026365778999999897
                      CHANNELS 3 Yrotation Xrotation Zrotation
                      End Site
                      {
                        OFFSET -0.19008373999999884 -0.012503266380000655 -0.0026365778999999897
                      }
                    }
                  }
                }
                JOINT rightMiddleProximal
                {
                  OFFSET -0.5834852037300005 0.05211639405060153 0.02307162440000001
                  CHANNELS 3 Yrotation Xrotation Zrotation
                  JOINT rightMiddleIntermediate
                  {
                    OFFSET -0.33880114510000003 -0.019952774050000954 0.0002455003561999819
                    CHANNELS 3 Yrotation Xrotation Zrotation
                    JOINT rightMiddleDistal
                    {
                      OFFSET -0.20675694929999955 -0.012273788999999091 0.00030209124000002766
                      CHANNELS 3 Yrotation Xrotation Zrotation
                      End Site
                      {
                        OFFSET -0.20675694929999955 -0.012273788999999091 0.00030209124000002766
                      }
                    }
                  }
                }
                JOINT rightLittleProximal
                {
                  OFFSET -0.5346811737299992 -0.011214256288399227 -0.24363941305000003
                  CHANNELS 3 Yrotation Xrotation Zrotation
                  JOINT rightLittleIntermediate
                  {
                    OFFSET -0.21757715980000092 -0.011771559690000988 0.01201554387
                    CHANNELS 3 Yrotation Xrotation Zrotation
                    JOINT rightLittleDistal
                    {
                      OFFSET -0.1475201849000004 -0.00822055339600003 0.006082065407000015
                      CHANNELS 3 Yrotation Xrotation Zrotation
                      End Site
                      {
                        OFFSET -0.1475201849000004 -0.00822055339600003 0.006082065407000015
                      }
                    }
                  }
                }
                JOINT rightRingProximal
                {
                  OFFSET -0.5800810755299999 0.027657985680600072 -0.12066365025000003
                  CHANNELS 3 Yrotation Xrotation Zrotation
                  JOINT rightRingIntermediate
                  {
                    OFFSET -0.26166445029999974 -0.013623118409999302 0.011164098990000045
                    CHANNELS 3 Yrotation Xrotation Zrotation
                    JOINT rightRingDistal
                    {
                      OFFSET -0.17666387530000027 -0.009072900100000503 0.005668185599999959
                      CHANNELS 3 Yrotation Xrotation Zrotation
                      End Site
                      {
                        OFFSET -0.17666387530000027 -0.009072900100000503 0.005668185599999959
                      }
                    }
                  }
                }
                JOINT rightThumbProximal
                {
                  OFFSET -0.10997596379000074 -0.09577489355940072 0.16989765924999997
                  CHANNELS 3 Yrotation Xrotation Zrotation
                  JOINT rightThumbIntermediate
                  {
                    OFFSET -0.31036620999999986 -0.08229339117999834 0.15440884469999996
                    CHANNELS 3 Yrotation Xrotation Zrotation
                    JOINT rightThumbDistal
                    {
                      OFFSET -0.21631306399999906 -0.08825326400000111 0.018656797720000014
                      CHANNELS 3 Yrotation Xrotation Zrotation
                      End Site
                      {
                        OFFSET -0.21631306399999906 -0.08825326400000111 0.018656797720000014
                      }
                    }
                  }
                }
              }
            }
          }
        }
      }
    }
  }
}
MOTION
Frames: 9
Frame Time: 0.03333333333333333
-0.8440676592072947 -6.712539552758356 -1.6748796925270535 0 -11.309888904071828 0 -29.881796839807265 11.923645905816798 23.27197163903782 112.89037550135566 72.92037339336768 110.27205338230333 -52.16673472306135 45.35466971786047 -30.225720552447996 0 0 0 -108.37747726067803 -81.11387178006112 56.282551997529026 -150.96682588845883 58.22290218532397 -163.8675725925153 15.81266184085661 -33.41315547309234 6.366494108966646 0 0 0 -0.8545187416006162 8.645174025394423 -1.3112538544370222 16.443469055211185 9.865341936983114 1.8475477225045873 0 0 0 -76.4499248630997 29.631104581696597 -5.814731336175184 -0.4140200518448603 -19.496883324046582 -33.74047995272004 -91.06415441948508 -56.054799382240866 25.499581078984953 -17.167698335848062 36.671219507860485 -31.292034904255782 0 0 0 0 0 0 0 0 0 0 0 0 0 0 0 0 0 0 0 0 0 0 0 0 0 0 0 0 0 0 0 0 0 0 0 0 0 0 0 0 0 0 0 0 0 -0.002034098033454443 -19.021135324175283 -12.000061644920047 13.902182888587966 -23.1481724922114 -17.827718034536762 0 0 0 0 0 0 0 0 0 13.247867411318534 -15.685097266767118 3.0867387214081665 9.756986297331778 -16.275144607849555 66.09344701943795 35.06275056755472 3.865527122169013 -15.238774256348686 7.483146970513049 16.46268592417592 61.89444735935129 0 0 0 0 0 0 0 0 0 0 0 0 0 0 0 0 0 0 0 0 0 0 0 0 0 0 0 0 0 0 0 0 0 0 0 0 0 0 0 0 0 0 0 0 0
-0.8440676592072947 -6.680574301638074 -1.6858035263614823 0 -10.118371756714932 0 -30.27311698291645 10.767771934758558 23.212389786774615 112.89037550135566 72.92037339336768 110.27205338230333 -52.27530627771037 45.28774055857984 -31.047667372992464 0 0 0 -113.49920403077074 -80.65470580658159 61.91878627660129 -150.76850345999128 58.52352989471108 -163.6051271862486 15.333094894105619 -33.295606018170425 6.751617448452657 0 0 0 -0.8545187416006162 8.645174025394423 -1.3112538544370222 16.36169877133348 8.10695719051463 1.32359146623689 0 0 0 -76.92360797405853 30.066705523172555 -6.971618828916474 -0.4121671149080059 -19.471152415372813 -33.860062614623985 -91.06415164871395 -56.054799382240866 25.49957831893262 -17.59339131694672 37.109871461659026 -31.411436411284978 0 0 0 0 0 0 0 0 0 0 0 0 0 0 0 0 0 0 0 0 0 0 0 0 0 0 0 0 0 0 0 0 0 0 0 0 0 0 0 0 0 0 0 0 0 -0.0020110352990226578 -18.824285403980717 -12.000067142846014 13.769276140830774 -23.002264837729406 -17.78200639328953 0 0 0 0 0 0 0 0 0 13.106327768478764 -14.680831653229108 3.8502550875315897 9.756986297331778 -16.275144607849555 66.09344701943795 35.06275056755472 3.865527122169013 -15.238774256348686 7.986277950419748 16.61745913581146 61.64657559721838 0 0 0 0 0 0 0 0 0 0 0 0 0 0 0 0 0 0 0 0 0 0 0 0 0 0 0 0 0 0 0 0 0 0 0 0 0 0 0 0 0 0 0 0 0
-0.8440676592072947 -6.648609587302335 -1.6967273601959105 0 -8.92737018471825 0 -30.66161997524112 9.61204042535385 23.161037162955758 112.89037550135566 72.92037339336768 110.27205338230333 -52.38232151091586 45.21974606669913 -31.868293616886437 0 0 0 -118.07882309769454 -80.12195430486948 67.01308915176202 -150.56580121163822 58.82367548357162 -163.3384030847398 14.855156643587016 -33.175362661571235 7.135009946840088 0 0 0 -0.8545187416006162 8.645174025394423 -1.3112538544370222 16.296487687958855 6.349716505560228 0.8047269943057774 0 0 0 -77.40927280980944 30.493722984077838 -8.137306075668654 -0.4103716319921605 -19.445418348153737 -33.979627156973 -91.06415441948508 -56.054799382240866 25.499581078984953 -18.022679099465954 37.54775370641515 -31.535623701642695 0 0 0 0 0 0 0 0 0 0 0 0 0 0 0 0 0 0 0 0 0 0 0 0 0 0 0 0 0 0 0 0 0 0 0 0 0 0 0 0 0 0 0 0 0 -0.00198908212462014 -18.62741890501105 -12.000075176431737 13.636597974470973 -22.856220116008487 -17.736701269448616 0 0 0 0 0 0 0 0 0 12.979252682542851 -13.67532796977106 4.607480289554429 9.756986297331778 -16.275144607849555 66.09344701943795 35.06275056755472 3.865527122169013 -15.238774256348686 8.489049095553975 16.774297591472354 61.39995260128593 0 0 0 0 0 0 0 0 0 0 0 0 0 0 0 0 0 0 0 0 0 0 0 0 0 0 0 0 0 0 0 0 0 0 0 0 0 0 0 0 0 0 0 0 0
-0.8440676592072947 -6.616644604574322 -1.7076511940303394 0 -7.737138660509642 0 -31.04756905971059 8.456782954004897 23.117814738425228 112.89037550135566 72.92037339336768 110.27205338230333 -52.487809923364026 45.15068996619397 -32.687556500066854 0 0 0 -122.13535477534158 -79.52705817403732 71.58445789015556 -150.35863289369794 59.12328144789637 -163.06731273433482 14.378892408433488 -33.0524604116966 7.516627867471442 0 0 0 -0.8545187416006162 8.64517488897998 -1.3112539623569466 16.24748741813057 4.594649512728438 0.29017705760027257 0 0 0 -77.90683577782892 30.91185510858526 -9.311639960924596 -0.4086347890808396 -19.419681118702503 -34.09916612924536 -91.06415441948508 -56.054799382240866 25.499581078984953 -18.455653075084793 37.98481347392927 -31.664681826057436 0 0 0 0 0 0 0 0 0 0 0 0 0 0 0 0 0 0 0 0 0 0 0 0 0 0 0 0 0 0 0 0 0 0 0 0 0 0 0 0 0 0 0 0 0 -0.001967203209314049 -18.430526365473217 -12.000078694973794 13.504150117718337 -22.710034120240916 -17.691796556877964 0 0 0 0 0 0 0 0 0 12.866405091984342 -12.668996668390347 5.358781440703809 9.756986297331778 -16.275144607849555 66.09344701943795 35.06275056755472 3.865527122169013 -15.238774256348686 8.991439533325764 16.933166507911015 61.1546291725484 0 0 0 0 0 0 0 0 0 0 0 0 0 0 0 0 0 0 0 0 0 0 0 0 0 0 0 0 0 0 0 0 0 0 0 0 0 0 0 0 0 0 0 0 0
-0.8440676592072947 -6.584679890238584 -1.7185750278647682 0 -6.547935977540785 0 -31.431222081736447 7.302308075873745 23.082579000385625 112.89037550135566 72.92037339336768 110.27205338230333 -52.59173403543607 45.08060503212815 -33.505362641785204 0 0 0 -125.70770264313425 -78.88029211273142 75.6717758138804 -150.14684225629085 59.42240224829534 -162.79168531876482 13.904338230016089 -32.92693425220949 7.896434718813087 0 0 0 -0.8545187416006162 8.64517488897998 -1.3112539623569466 16.2144214751896 2.842801775742186 -0.2208034604785014 0 0 0 -78.41611780545682 31.32080018046564 -10.494436608868767 -0.4069518029540677 -19.39394253359594 -34.21869125585525 -91.06415441948508 -56.054799382240866 25.499581078984953 -18.892398075554173 38.42100068644669 -31.798708844027395 0 0 0 0 0 0 0 0 0 0 0 0 0 0 0 0 0 0 0 0 0 0 0 0 0 0 0 0 0 0 0 0 0 0 0 0 0 0 0 0 0 0 0 0 0 -0.0019453970918976032 -18.233616340976006 -12.000081099545003 13.371928075482346 -22.5637119010312 -17.647293095341244 0 0 0 0 0 0 0 0 0 12.76755213925239 -11.66226980571836 6.104511124512508 9.756986297331778 -16.275144607849555 66.09344701943795 35.06275056755472 3.865527122169013 -15.238774256348686 9.493424044284156 17.094052580540005 60.91063557958262 0 0 0 0 0 0 0 0 0 0 0 0 0 0 0 0 0 0 0 0 0 0 0 0 0 0 0 0 0 0 0 0 0 0 0 0 0 0 0 0 0 0 0 0 0
-0.8440676592072947 -6.552714639118301 -1.7294988616991964 0 -5.360017952455507 0 -31.812828453573818 6.148931045726665 23.05523182679442 112.89037550135566 72.92037339336768 110.27205338230333 -52.69404731544291 45.00950943490549 -34.32161688818168 0 0 0 -128.8442383302962 -78.19055789758274 79.3234030008952 -149.93034511395464 59.720938367899166 -162.51145449075645 13.431533977581887 -32.798798815289146 8.274392847958739 0 0 0 -0.8545187416006162 8.645174025394423 -1.3112538544370222 16.1970424575385 1.095179519628674 -0.72894327673496 0 0 0 -78.9369511027513 31.720266963882306 -11.685493219276283 -0.40533184323094346 -19.36819353838619 -34.33818290806199 -91.06415164871395 -56.054799382240866 25.49957831893262 -19.333017546127 38.85626363099393 -31.937791156906357 0 0 0 0 0 0 0 0 0 0 0 0 0 0 0 0 0 0 0 0 0 0 0 0 0 0 0 0 0 0 0 0 0 0 0 0 0 0 0 0 0 0 0 0 0 -0.0019226345522549743 -18.036697344137124 -12.000087400611422 13.239932699490366 -22.417252940124666 -17.603194601614007 0 0 0 0 0 0 0 0 0 12.68247621434362 -10.655565510087236 6.845017291127284 9.756986297331778 -16.275144607849555 66.09344701943795 35.06275056755472 3.865527122169013 -15.238774256348686 9.994955357627513 17.25691937330768 60.66796450211747 0 0 0 0 0 0 0 0 0 0 0 0 0 0 0 0 0 0 0 0 0 0 0 0 0 0 0 0 0 0 0 0 0 0 0 0 0 0 0 0 0 0 0 0 0
-0.8440676592072947 -6.52074965639029 -1.7404226955336253 0 -4.173631086568914 0 -32.192611286683785 4.996949059734794 23.03566967061127 112.89037550135566 72.92037339336768 110.27205338230333 -52.79474810687093 44.93744059717941 -35.136261851494126 0 0 0 -131.59538156410997 -77.46527177216024 82.5897091347867 -149.70900606333407 60.018895919314616 -162.2264765157344 12.960508930163678 -32.668068802260976 8.650472417552978 0 0 0 -0.8545187416006162 8.645174025394423 -1.3112538544370222 16.19513834758925 -0.6472154892462229 -1.2349508268445988 0 0 0 -79.46911524243475 32.109951063669534 -12.884586010221492 -0.40376749671026607 -19.34244861036141 -34.457652808182054 -91.06415441948508 -56.054799382240866 25.499581078984953 -19.77757118745061 39.29054447643635 -32.081988501491125 0 0 0 0 0 0 0 0 0 0 0 0 0 0 0 0 0 0 0 0 0 0 0 0 0 0 0 0 0 0 0 0 0 0 0 0 0 0 0 0 0 0 0 0 0 -0.0019009728254303936 -17.839756320266478 -12.000093330151492 13.108161163011838 -22.27066409627715 -17.559489762009378 0 0 0 0 0 0 0 0 0 12.610962067702895 -9.64929307590762 7.580643247818971 9.756986297331778 -16.275144607849555 66.09344701943795 35.06275056755472 3.865527122169013 -15.238774256348686 10.496028866504233 17.421751956211182 60.42667201610352 0 0 0 0 0 0 0 0 0 0 0 0 0 0 0 0 0 0 0 0 0 0 0 0 0 0 0 0 0 0 0 0 0 0 0 0 0 0 0 0 0 0 0 0 0
-0.8440676592072947 -6.488784942054551 -1.7513462609757826 0 -2.9890329704330862 0 -32.57081131959074 3.846675383277151 23.023801499869833 112.89037550135566 72.92037339336768 110.27205338230333 -52.893792866506345 44.86439243072312 -35.94919596404093 0 0 0 -134.0087824451517 -76.7107646182577 85.51836834798512 -149.48268096425292 60.31626730606876 -161.93661101409373 12.491297004744961 -32.53477112782221 9.024634229974366 0 0 0 -0.8545187416006162 8.645174025394423 -1.3112538544370222 16.208559582943995 -2.3833964574290216 -1.739515954057791 0 0 0 -80.01239888469875 32.4895835845927 -14.091466597254241 -0.4022538141297276 -19.31670412358186 -34.57712169248977 -91.06415441948508 -56.054799382240866 25.499581078984953 -20.226186104484423 39.723787942900366 -32.23142864821298 0 0 0 0 0 0 0 0 0 0 0 0 0 0 0 0 0 0 0 0 0 0 0 0 0 0 0 0 0 0 0 0 0 0 0 0 0 0 0 0 0 0 0 0 0 -0.0018793815432508138 -17.64280356258734 -12.000095515516506 12.976610870651617 -22.123933760988216 -17.51618232203077 0 0 0 0 0 0 0 0 0 12.552805532394176 -8.643863104802898 8.31171180191184 9.756986297331778 -16.275144607849555 66.09344701943795 35.06275056755472 3.865527122169013 -15.238774256348686 10.99660921845716 17.5885175916227 60.186802418857496 0 0 0 0 0 0 0 0 0 0 0 0 0 0 0 0 0 0 0 0 0 0 0 0 0 0 0 0 0 0 0 0 0 0 0 0 0 0 0 0 0 0 0 0 0
-0.8440676592072947 -6.456819690934267 -1.7622703632024823 0 -1.806465961938531 0 -32.94766938037896 2.698414153878094 23.019551955639663 112.89037550135566 72.92037339336768 110.27205338230333 -52.99117486863007 44.790421475747586 -36.76035774651373 0 0 0 -136.12883730430985 -75.93209177634104 88.1537209199672 -149.25124666992775 60.61302363577412 -161.64172671068712 12.023933219438417 -32.398936730917825 9.396848069009925 0 0 0 -0.8545187416006162 8.64517488897998 -1.3112539623569466 16.23718233551949 -4.112410920554411 -2.243319322339263 0 0 0 -80.56652368987241 32.8588834662873 -15.30586474895436 -0.40080191052735187 -19.290952836146612 -34.69655997017237 -91.06415441948508 -56.054799382240866 25.499581078984953 -20.678937910628417 40.15593689318697 -32.38618305143338 0 0 0 0 0 0 0 0 0 0 0 0 0 0 0 0 0 0 0 0 0 0 0 0 0 0 0 0 0 0 0 0 0 0 0 0 0 0 0 0 0 0 0 0 0 -0.001857859159793634 -17.445834996436133 -12.000097208442403 12.845285204654571 -21.97708351253051 -17.473275550648523 0 0 0 0 0 0 0 0 0 12.50781923228253 -7.639674205399231 9.038555749195151 9.756986297331778 -16.275144607849555 66.09344701943795 35.06275056755472 3.865527122169013 -15.238774256348686 11.496663851272785 17.75718537328548 59.94834880845292 0 0 0 0 0 0 0 0 0 0 0 0 0 0 0 0 0 0 0 0 0 0 0 0 0 0 0 0 0 0 0 0 0 0 0 0 0 0 0 0 0 0 0 0 0
